<svg xmlns="http://www.w3.org/2000/svg" viewBox="0 0 32 32" shape-rendering="crispEdges">
<rect x="12" y="2" width="8" height="1" fill="#000000"/>
<rect x="12" y="3" width="8" height="1" fill="#000000"/>
<rect x="8" y="4" width="4" height="1" fill="#000000"/>
<rect x="12" y="4" width="8" height="1" fill="#f5b13d"/>
<rect x="20" y="4" width="4" height="1" fill="#000000"/>
<rect x="8" y="5" width="4" height="1" fill="#000000"/>
<rect x="12" y="5" width="8" height="1" fill="#f5b13d"/>
<rect x="20" y="5" width="4" height="1" fill="#000000"/>
<rect x="6" y="6" width="2" height="1" fill="#000000"/>
<rect x="8" y="6" width="16" height="1" fill="#f5b13d"/>
<rect x="24" y="6" width="2" height="1" fill="#000000"/>
<rect x="6" y="7" width="2" height="1" fill="#000000"/>
<rect x="8" y="7" width="16" height="1" fill="#f5b13d"/>
<rect x="24" y="7" width="2" height="1" fill="#000000"/>
<rect x="4" y="8" width="2" height="1" fill="#000000"/>
<rect x="6" y="8" width="20" height="1" fill="#f5b13d"/>
<rect x="26" y="8" width="2" height="1" fill="#000000"/>
<rect x="4" y="9" width="2" height="1" fill="#000000"/>
<rect x="6" y="9" width="20" height="1" fill="#f5b13d"/>
<rect x="26" y="9" width="2" height="1" fill="#000000"/>
<rect x="4" y="10" width="2" height="1" fill="#000000"/>
<rect x="6" y="10" width="20" height="1" fill="#f5b13d"/>
<rect x="26" y="10" width="2" height="1" fill="#000000"/>
<rect x="4" y="11" width="2" height="1" fill="#000000"/>
<rect x="6" y="11" width="20" height="1" fill="#f5b13d"/>
<rect x="26" y="11" width="2" height="1" fill="#000000"/>
<rect x="2" y="12" width="2" height="1" fill="#000000"/>
<rect x="4" y="12" width="10" height="1" fill="#f5b13d"/>
<rect x="14" y="12" width="4" height="1" fill="#000000"/>
<rect x="18" y="12" width="10" height="1" fill="#f5b13d"/>
<rect x="28" y="12" width="2" height="1" fill="#000000"/>
<rect x="2" y="13" width="2" height="1" fill="#000000"/>
<rect x="4" y="13" width="10" height="1" fill="#f5b13d"/>
<rect x="14" y="13" width="4" height="1" fill="#000000"/>
<rect x="18" y="13" width="10" height="1" fill="#f5b13d"/>
<rect x="28" y="13" width="2" height="1" fill="#000000"/>
<rect x="2" y="14" width="2" height="1" fill="#000000"/>
<rect x="4" y="14" width="8" height="1" fill="#f5b13d"/>
<rect x="12" y="14" width="2" height="1" fill="#000000"/>
<rect x="14" y="14" width="4" height="1" fill="#ffffff"/>
<rect x="18" y="14" width="2" height="1" fill="#000000"/>
<rect x="20" y="14" width="8" height="1" fill="#f5b13d"/>
<rect x="28" y="14" width="2" height="1" fill="#000000"/>
<rect x="2" y="15" width="2" height="1" fill="#000000"/>
<rect x="4" y="15" width="8" height="1" fill="#f5b13d"/>
<rect x="12" y="15" width="2" height="1" fill="#000000"/>
<rect x="14" y="15" width="4" height="1" fill="#ffffff"/>
<rect x="18" y="15" width="2" height="1" fill="#000000"/>
<rect x="20" y="15" width="8" height="1" fill="#f5b13d"/>
<rect x="28" y="15" width="2" height="1" fill="#000000"/>
<rect x="2" y="16" width="12" height="1" fill="#000000"/>
<rect x="14" y="16" width="4" height="1" fill="#ffffff"/>
<rect x="18" y="16" width="12" height="1" fill="#000000"/>
<rect x="2" y="17" width="12" height="1" fill="#000000"/>
<rect x="14" y="17" width="4" height="1" fill="#ffffff"/>
<rect x="18" y="17" width="12" height="1" fill="#000000"/>
<rect x="2" y="18" width="2" height="1" fill="#000000"/>
<rect x="4" y="18" width="10" height="1" fill="#ffffff"/>
<rect x="14" y="18" width="4" height="1" fill="#000000"/>
<rect x="18" y="18" width="10" height="1" fill="#ffffff"/>
<rect x="28" y="18" width="2" height="1" fill="#000000"/>
<rect x="2" y="19" width="2" height="1" fill="#000000"/>
<rect x="4" y="19" width="10" height="1" fill="#ffffff"/>
<rect x="14" y="19" width="4" height="1" fill="#000000"/>
<rect x="18" y="19" width="10" height="1" fill="#ffffff"/>
<rect x="28" y="19" width="2" height="1" fill="#000000"/>
<rect x="4" y="20" width="2" height="1" fill="#000000"/>
<rect x="6" y="20" width="20" height="1" fill="#ffffff"/>
<rect x="26" y="20" width="2" height="1" fill="#000000"/>
<rect x="4" y="21" width="2" height="1" fill="#000000"/>
<rect x="6" y="21" width="20" height="1" fill="#ffffff"/>
<rect x="26" y="21" width="2" height="1" fill="#000000"/>
<rect x="4" y="22" width="2" height="1" fill="#000000"/>
<rect x="6" y="22" width="20" height="1" fill="#ffffff"/>
<rect x="26" y="22" width="2" height="1" fill="#000000"/>
<rect x="4" y="23" width="2" height="1" fill="#000000"/>
<rect x="6" y="23" width="20" height="1" fill="#ffffff"/>
<rect x="26" y="23" width="2" height="1" fill="#000000"/>
<rect x="6" y="24" width="2" height="1" fill="#000000"/>
<rect x="8" y="24" width="16" height="1" fill="#ffffff"/>
<rect x="24" y="24" width="2" height="1" fill="#000000"/>
<rect x="6" y="25" width="2" height="1" fill="#000000"/>
<rect x="8" y="25" width="16" height="1" fill="#ffffff"/>
<rect x="24" y="25" width="2" height="1" fill="#000000"/>
<rect x="8" y="26" width="4" height="1" fill="#000000"/>
<rect x="12" y="26" width="8" height="1" fill="#ffffff"/>
<rect x="20" y="26" width="4" height="1" fill="#000000"/>
<rect x="8" y="27" width="4" height="1" fill="#000000"/>
<rect x="12" y="27" width="8" height="1" fill="#ffffff"/>
<rect x="20" y="27" width="4" height="1" fill="#000000"/>
<rect x="12" y="28" width="8" height="1" fill="#000000"/>
<rect x="12" y="29" width="8" height="1" fill="#000000"/>
</svg>
